<?xml version="1.0" encoding="UTF-8"?>
<svg version="1.1" viewBox="0 0 720 358" xmlns="http://www.w3.org/2000/svg">
<path d="m673.18 0.34961-0.15234 0.011719c-12.439 0.89704-29.007 4.6154-44.711 10.922h-547.42c2e-5 0-59.311 258.77-59.311 258.77h385.79c8.1887 4.7788 18.138 7.5688 29.25 8.5371l0.18555 0.0156h19.416l0.16601-0.0137c6.2076-0.48413 12.684-1.3839 19.379-2.6934 11.542-2.2568 23.718-5.7107 36.334-10.311 9.5495-3.482 19.354-7.5981 29.299-12.379l4e-3 -2e-3c21.642-10.375 43.952-23.733 65.834-39.842 7.2105-5.3037 14.128-10.743 20.766-16.273l2e-3 -2e-3c6.0877-5.0654 11.931-10.211 17.514-15.416l0.0254-0.0234 0.0254-0.0254c15.683-15.114 27.597-30.48 34.504-44.365 3.5977-7.231 5.8541-14.072 6.418-20.422 0.56381-6.3489-0.65812-12.359-4.2246-17.072l-2e-3 -2e-3c-2.6158-3.4607-6.2889-5.7509-10.504-7.2598 13.728-11.273 24.903-23.312 32.232-35.092 8.5592-13.757 12.377-27.392 8.1992-38.869v-2e-3c-2.6729-7.3723-8.7238-12.913-16.68-15.783h-2e-3l-2e-3 -0.00195c-3.5337-1.2712-7.3994-2.04-11.525-2.3887l-0.17774-0.015625zm10.203 8.5273c3.4828 0.044736 6.5801 0.94138 9.2461 1.9004 6.0584 2.1864 9.7837 5.7871 11.553 10.668l2e-3 0.0039v0.0039c2.813 7.7222 0.38015 18.91-7.4238 31.453s-20.705 26.141-37.09 38.436l-9.0449 6.7871 11.275 0.87305c6.6695 0.51672 11.061 2.5818 13.57 5.9024l2e-3 2e-3c2.0566 2.7173 2.9624 6.3203 2.5312 11.176s-2.2938 10.811-5.5606 17.377c-6.27 12.604-17.623 27.405-32.758 41.996-5.4567 5.0869-11.171 10.121-17.131 15.08l-2e-3 2e-3c-6.5136 5.4266-13.295 10.762-20.361 15.959h-2e-3c-21.467 15.804-43.34 28.892-64.471 39.021l-4e-3 2e-3h-2e-3c-9.696 4.6615-19.244 8.6697-28.527 12.055-12.247 4.4654-24.009 7.7961-35.051 9.9551-6.3619 1.2444-12.48 2.0907-18.297 2.5488h-18.57c-0.0873-8e-3 -0.1707-0.0194-0.25781-0.0273h1.7168c-17.001-1.4835-30.424-7.4527-38.422-18.332-1.4835-2.0122-2.7089-4.1793-3.7832-6.4473-0.68207-1.6711-1.3227-3.3573-1.9707-5.0625-1.7052-5.4226-2.3851-11.44-2.0781-17.852 0.85262-17.871 9.2371-39.129 23.766-61.389 15.432-23.657 37.799-48.45 65.492-71.459 6.207-5.1532 12.625-10.242 19.344-15.188 8.3044-6.1098 16.672-11.736 25.045-16.998 30.847-19.421 61.618-33.009 88.885-39.912-26.056 8.5005-55.327 22.93-84.248 42.576-1.0402 0.70255-2.0686 1.4215-3.0918 2.1309-16.046 11.118-30.583 22.927-43.27 34.852-40.823 38.385-62.401 78.159-52.596 101.46 0.69916 1.6029 1.5319 3.1326 2.5039 4.582 10.538 15.5 36.656 18.181 69.754 9.8594 2.2509-0.56275 4.5032-1.2002 6.8223-1.8652 10.572-3.0524 21.796-7.1743 33.357-12.256 2.7795-1.2278 5.5893-2.4908 8.4199-3.8379 0.28988-0.13641 0.56364-0.27231 0.85352-0.42578 36.492-18.132 64.535-38.994 70.605-51.529 1.3301-2.7266 1.6499-5.0521 0.74609-6.875-4.3312-8.7819-34.638-2.848-71.352 13.057-2.95 1.2789-5.9349 2.5944-8.9531 3.9961 2.4555-2.2799 5.0121-4.5697 7.6211-6.8223 4.1608-3.5844 8.4676-7.0892 13.055-10.551 7.179-5.4363 14.437-10.35 21.582-14.707 33.456-25.241 50.37-49.116 46.84-57.977-0.66505-1.6694-2.081-2.8184-4.2637-3.5176-6.9744-2.2185-19.704 0.42927-35.17 6.7676-12.755 5.2316-27.405 12.99-42.258 22.646l-2.0234 1.332c2e-5 0-0.37305 0.21484-0.37305 0.21484 2e-5 2e-5 -7.1406 4.7422-7.1406 4.7422-2e-5 -1e-5 4.1016-7.5137 4.1016-7.5137 6.0876-11.144 16.004-22.771 28.35-33.572 9.0547-7.8969 19.4-15.337 30.535-21.848 4.2119-2.4657 8.417-4.7553 12.629-6.8203 4.3142-2.1077 8.6299-3.9807 12.842-5.6484 20.525-7.0788 32.481-11.244 52.5-10.987zm-296.51 2.7793c-1.6711 25.505 3.2738 62.862 14.494 104.34 1.9951 7.3802 4.1674 14.892 6.5547 22.488 1.4836 4.691 3.0132 9.3094 4.582 13.855-0.9208 1.354-1.8471 2.6983-2.7168 4.0488-14 21.455-22.183 41.731-24.246 59.363-5.9171-19.815-10.373-41.518-12.896-64.531-0.71619-6.5941-1.2772-13.114-1.6523-19.557-2.7625-46.796 3.3475-89.218 15.881-120.01zm-279.39 33.199c0.31934-0.0075 0.63395 0 0.95899 0 0-2e-5 63.041 0 63.041 0 5.3885-2e-5 9.5544 1.0096 12.521 3.0371 2.95 2.0395 4.0566 4.6775 3.3574 7.8867 2e-5 2e-5 -7.5137 33.943-7.5137 33.943 0 3e-5 -22.221 0-22.221 0 2e-5 3e-5 7.3008-33.037 7.3008-33.037h-55.633c-2e-5 0-20.09 90.803-20.09 90.803 2e-5 0-7.2461 32.879-7.2461 32.879 0 3e-5 55.578 0 55.578 0 0 3e-5 0.0547-0.21289 0.0547-0.21289 0 2e-5 11.137-50.305 11.137-50.305 0-2e-5 -26.111 0-26.111 0 0-2e-5 2.5039-11.352 2.5039-11.352-1e-5 -2e-5 48.332 0 48.332 0 0-2e-5 -13.854 62.775-13.854 62.775-0.18757 0.89352-0.51561 1.7024-0.95899 2.5039-1.1425 2.0804-3.1365 3.8616-5.916 5.3281-3.8538 2.0292-8.467 3.0371-13.855 3.0371 0 2e-5 -62.986 0-62.986 0-5.3885 2e-5 -9.5544-1.0079-12.521-3.0371-2.95-2.0292-4.0736-4.6194-3.3574-7.832 1e-5 -2e-5 27.762-125.49 27.762-125.49 0.71618-3.2092 2.9514-5.8473 6.8223-7.8867 0.13642-0.07331 0.28937-0.09025 0.42578-0.16016 3.533-1.7697 7.6787-2.7638 12.469-2.877zm98.797 0c-2e-5 -2e-5 79.346 0 79.346 0 5.3203-2e-5 9.5036 1.0096 12.471 3.0371 2.9842 2.0395 4.1264 4.6775 3.4102 7.8867 2e-5 2e-5 -14.814 66.93-14.814 66.93-0.69912 3.1887-2.9871 5.7911-6.875 7.834-3.8879 2.0497-8.4634 3.0898-13.801 3.0898h-57.658l-11.137 50.25c0 2e-5 -1.8125 8.2598-1.8125 8.2598 1e-5 2e-5 -21.742 0-21.742 0 0 2e-5 1.6523-7.459 1.6523-7.459 0 2e-5 30.961-139.83 30.961-139.83zm109.61 0c-1e-5 -2e-5 21.742 0 21.742 0 2e-5 -2e-5 -24.619 111.21-24.619 111.21 3e-5 2e-5 -5.3828 24.301-5.3828 24.301 0 3e-5 52.01 0 52.01 0 0.54568 3.9885 1.1831 7.9045 1.8652 11.775-2e-5 2e-5 -78.227 0-78.227 0 2e-5 2e-5 6.1816-27.922 6.1816-27.922 2e-5 0 26.43-119.37 26.43-119.37zm-90.482 11.83c2e-5 0-14.441 65.117-14.441 65.117 0-2e-5 54.193 0 54.193 0-1e-5 -2e-5 14.389-65.117 14.389-65.117zm-45.562 145.69c0.21267-7e-3 0.42639 0 0.64062 0 2.5237 2e-5 4.7266 0.44375 6.5 1.2793 1.8928 0.88671 3.2478 2.204 3.998 3.9434 0.73325 1.6882 0.92346 3.6037 0.53125 5.7012 0 1e-5 -0.1582 0.79883-0.1582 0.79883 1e-5 -3e-5 -6.2363 0-6.2363 0-2e-5 -3e-5 0.0547-0.7461 0.0547-0.7461 0.16118-1.4654-0.0203-2.6175-0.58593-3.4102-0.0737-0.0994-0.18167-0.23122-0.26758-0.32032-0.14068-0.14363-0.35231-0.30727-0.5332-0.42578-0.87238-0.5495-2.2365-0.85156-3.9961-0.85156-2.3362 2e-5 -4.0817 0.40609-5.2754 1.2246-1.1596 0.80146-1.8921 1.6972-2.1309 2.7715-0.23875 1.0913 0.15293 1.6638 0.42578 1.9707 8e-3 8e-3 0.0423 0.0452 0.0527 0.0547 0.34552 0.29445 1.5452 0.98492 5.2754 1.8652 3.3763 0.81851 5.6131 1.5527 6.875 2.1836 1.9099 0.97196 3.2442 2.2314 3.9434 3.7832 0.69911 1.5347 0.85208 3.3314 0.42578 5.2754-0.4263 1.8928-1.3918 3.6384-2.8242 5.2754-1.4153 1.637-3.2172 2.9341-5.3828 3.8379-2.1486 0.88672-4.5044 1.3848-6.9258 1.3848-3.0694-1e-5 -5.534-0.46394-7.4609-1.3848-2.0122-0.95491-3.4638-2.4628-4.3164-4.4238-0.81851-1.9099-0.99361-4.077-0.5332-6.4473 0-3e-5 0.16016-0.74609 0.16016-0.74609h6.1289l-0.0547 0.74609c-0.15348 1.4153-2e-3 2.5576 0.37305 3.4102 0.35809 0.81853 1.0415 1.4968 2.1328 2.0254 1.1595 0.5627 2.6076 0.85156 4.2617 0.85156 1.4836-1e-5 2.8401-0.24806 4.0508-0.6914 1.1936-0.4263 2.1421-0.98889 2.8242-1.7051 0.66502-0.71622 1.0541-1.4744 1.2246-2.293 0.17052-0.73324 0.13169-1.3517-0.1582-1.8633-0.32399-0.54564-0.96659-1.0302-1.9727-1.4394 0-1e-5 -5.2226-1.5449-5.2226-1.5449-2.9159-0.73323-4.879-1.4337-6.0215-2.1328-1.5518-0.92081-2.6702-2.1003-3.25-3.5156-0.57977-1.3983-0.64077-2.9486-0.26562-4.6367 0.3922-1.8075 1.2622-3.5278 2.6094-5.0625 1.3642-1.5518 3.1252-2.7689 5.2227-3.5703 1.8544-0.69541 3.8056-1.1028 5.8613-1.1719zm55.953 0.10547c0.33725-0.0263 0.65361 0 1.0117 0 1e-5 0 3.8379 0.42773 3.8379 0.42773l1.2793 0.10547c2e-5 1e-5 -1.8652 4.7422-1.8652 4.7422l-0.37304 0.74609c0-2e-5 -2.9316-0.26562-2.9316-0.26562-0.86541 0-1.5007 0.133-1.918 0.42578-0.0277 0.0209-0.0818 0.085-0.10742 0.10742-0.0559 0.049-0.14966 0.13431-0.2129 0.21289-0.25659 0.33651-0.56862 0.9383-0.79882 2.0254-2e-5 0-0.11058 0.45935-0.21289 0.85157 1.3471 1e-5 4.582 0 4.582 0 0 1e-5 -1.1719 5.2754-1.1719 5.2754 0-1e-5 -3.3511 0-4.4766 0-0.34106 1.5347-4.5293 20.303-4.5293 20.303-2e-5 -2e-5 -6.1816 0-6.1816 0-2e-5 -2e-5 4.0177-18.035 4.5293-20.303-1.0402-1e-5 -3.5703 0-3.5703 0 0-1e-5 1.1738-5.2754 1.1738-5.2754 1e-5 1e-5 2.5437 0 3.5156 0 0.17052-0.73324 0.42773-1.6524 0.42773-1.6524 0.37516-1.7052 0.76579-2.9306 1.2774-3.7832 0.69917-1.1766 1.6868-2.1608 2.9316-2.877 1.0253-0.59576 2.3217-0.95259 3.7832-1.0664zm14.762 0.26758c-2e-5 -1e-5 -1.6161 7.2697-2.0254 9.1113 1.1936 1e-5 3.9961 0 3.9961 0 0 1e-5 -1.1719 5.2754-1.1719 5.2754-2e-5 -1e-5 -2.9389 0-3.9961 0-0.32401 1.4665-2.8789 12.844-2.8789 12.844 2e-5 -2e-5 -0.21289 1.3656-0.21289 1.7578 2.8e-4 0.0131-1e-3 0.0431 0 0.0527 8.4e-4 4e-3 -1e-3 0.0514 0 0.0547 2e-3 3e-3 0.0506-2e-3 0.0527 0 0-2e-5 0.64063 0.0527 0.64063 0.0527l2.9297-0.21289-0.31836 4.7422c3e-5 0 0.0527 0.85352 0.0527 0.85352-2e-5 -2e-5 -4.209 0.47851-4.209 0.47851-1.6711-2e-5 -2.8965-0.27179-3.7832-0.85156-0.93785-0.61392-1.4854-1.428-1.707-2.4512-0.0341-0.18759-0.10547-0.46133-0.10547-0.85352 0-0.76736 0.14416-2.0655 0.63867-4.3164 2e-5 2e-5 2.2413-10.036 2.7188-12.15-0.80143-1e-5 -2.9316 0-2.9316 0 2e-5 -1e-5 1.1719-5.2754 1.1719-5.2754-2e-5 1e-5 2.079 0 2.9316 0 0.27281-1.2278 1.2266-5.4356 1.2266-5.4356 0 2e-5 4.9551-2.6113 4.9551-2.6113-1e-5 2e-5 2.0254-1.0644 2.0254-1.0644zm-196.37 0.21289h23.979l-1.332 5.9688c0 2e-5 -15.997 0-17.531 0-0.27282 1.2107-1.3656 6.1133-1.7578 7.8867h15.186l-1.332 5.9668h-15.186c-0.32399 1.4836-3.252 14.654-3.252 14.654 2e-5 -2e-5 -6.4473 0-6.4473 0 1e-5 -2e-5 7.6738-34.477 7.6738-34.477zm32.133 8.4199c0.24067-0.0296 0.50363 0 0.74609 0 1.5347 0 2.9522 0.46553 4.3164 1.4375 0 2e-5 0.85156 0.58594 0.85156 0.58594l-3.3027 5.4355c0-2e-5 -0.90625-0.63867-0.90625-0.63867-0.66504-0.42629-1.3825-0.63867-2.1328-0.63867-0.64799 2e-5 -1.2494 0.22941-1.8633 0.63867-0.64797 0.4263-1.1904 0.99045-1.5996 1.7578-0.7162 1.313-1.2396 2.7852-1.5977 4.3711 0 1e-5 -2.8789 13.107-2.8789 13.107 0-2e-5 -6.1816 0-6.1816 0 0-2e-5 5.7031-25.578 5.7031-25.578 2e-5 1e-5 5.7539 0 5.7539 0 0 1e-5 -0.19742 0.77652-0.26562 1.0664 0.27284-0.20461 0.56009-0.4852 0.79883-0.63867 0.82597-0.4929 1.6991-0.80071 2.5586-0.90625zm18.33 0c0.37219-0.0282 0.73867 0 1.1191 0 3.4787 0 6.1117 1.2187 7.834 3.623 1.0743 1.5517 1.6523 3.4709 1.6523 5.7559 0 1.2618-0.15649 2.618-0.48047 4.1016l-0.47851 1.8652c0-2e-5 -15.634 0-17.373 0-0.0341 0.35808-0.05273 0.74242-0.05273 1.0664 0 1.3301 0.27178 2.3772 0.85156 3.1445 0.2755 0.37513 0.59665 0.71279 0.96094 0.95898 0.68678 0.44789 1.5716 0.69336 2.6094 0.69336 1.2619-2e-5 2.3719-0.34864 3.4121-1.0137 0.98905-0.63093 1.934-1.6388 2.7695-3.0371 0-3e-5 6.6074 0 6.6074 0 0-3e-5 -0.58593 1.2793-0.58593 1.2793-1.2619 2.5578-3.021 4.5534-5.2207 5.9688-2.1997 1.4153-4.8296 2.1836-7.7285 2.1836-3.7685-1e-5 -6.5732-1.2187-8.3125-3.623-1.7223-2.3532-2.0927-5.6067-1.1719-9.6992 0.92083-4.1607 2.7584-7.4856 5.4355-9.8047 2.3996-2.0806 5.1217-3.2338 8.1523-3.4629zm27.764 0c0.37217-0.0282 0.73867 0 1.1191 0 3.4787 0 6.1117 1.2187 7.834 3.623 1.0743 1.5517 1.6504 3.4709 1.6504 5.7559 0 1.2448-0.15451 2.5823-0.47851 4.0488 0 2e-5 -0.48047 1.918-0.48047 1.918 0-2e-5 -15.632 0-17.371 0-0.0171 0.2387-0.0356 0.45463-0.0527 0.69336-0.0128 0.0895 6e-3 0.226 0 0.32031-5e-4 0.0154 0 0.0378 0 0.0527 0 0.2558 0.0356 0.50735 0.0527 0.74609 0.0852 0.97196 0.33843 1.7846 0.79883 2.3984 0.0877 0.11936 0.17122 0.26673 0.26758 0.37305 0.78101 0.83554 1.8853 1.2793 3.3027 1.2793 1.2619-2e-5 2.387-0.34864 3.4102-1.0137 0.98904-0.63093 1.9359-1.6388 2.7715-3.0371 0-3e-5 6.6602 0 6.6602 0-1e-5 -3e-5 -0.63867 1.2793-0.63867 1.2793-1.2619 2.5578-3.0229 4.5534-5.2227 5.9688-2.1997 1.4153-4.8277 2.1836-7.7266 2.1836-3.7685-1e-5 -6.5732-1.2187-8.3125-3.623-1.1254-1.5347-1.6523-3.4895-1.6523-5.8086 0-0.35812 0.0186-0.744 0.0527-1.1191 0.0682-0.88671 0.20605-1.7824 0.42773-2.7715 0.92084-4.1437 2.7037-7.4856 5.3809-9.8047 2.3996-2.0806 5.1764-3.2338 8.207-3.4629zm75.615 0c0.38084-0.0293 0.73121 0 1.1191 0 3.5469 0 6.2735 1.2 8.0469 3.5703 1.7564 2.3702 2.1831 5.5675 1.2793 9.5918-0.69913 3.1376-1.7086 5.672-3.0898 7.5137-1.3813 1.8416-3.1423 3.346-5.2227 4.3691-2.0633 1.0231-4.2495 1.5449-6.4492 1.5449-3.6151-1e-5 -6.3056-1.2357-8.0449-3.623-1.1255-1.5176-1.7051-3.4724-1.7051-5.8086 2e-5 -1.2619 0.13748-2.6029 0.47852-4.1035 1.0232-4.57 3.1122-8.0513 6.1816-10.285 2.253-1.6263 4.7403-2.5646 7.4062-2.7695zm93.629 0c0.4496-0.0277 0.86576 0 1.332 0 2.1486 0 3.8363 0.21747 5.1152 0.74609 1.3642 0.54569 2.3313 1.3175 2.877 2.2383 0.52864 0.86963 0.79883 1.937 0.79883 3.25 1e-5 2e-5 -0.63867 3.8906-0.63867 3.8906 3e-5 0-1.1719 5.2754-1.1719 5.2754-1.0061 4.5018-1.2281 6.1894-1.2793 6.8203-0.0512 0.85262 0.0269 1.6838 0.26562 2.4512 2e-5 -2e-5 0.42774 1.3848 0.42774 1.3848 2e-5 -2e-5 -6.2891 0-6.2891 0-2e-5 -2e-5 -0.26563-0.79883-0.26563-0.79883-0.10231-0.37512-0.0734-0.85298-0.10742-1.2793-1.1936 0.73324-2.3886 1.3846-3.4629 1.7598-1.5858 0.54569-3.2312 0.85156-4.9024 0.85156-2.8989-1e-5 -5.0458-0.75472-6.3418-2.2383-0.98902-1.0913-1.4395-2.4257-1.4395-3.9434-2e-5 -0.57977 0.0765-1.1796 0.2129-1.8105 0.28987-1.296 0.81678-2.496 1.6523-3.5703 0.81851-1.0573 1.7876-1.9277 2.8789-2.5586 1.0573-0.63092 2.2351-1.0778 3.4629-1.3848-2e-5 0 3.7832-0.64062 3.7832-0.64062 2.9159-0.34106 5.0933-0.7642 6.6621-1.2246 0.0341-0.17052 0.10547-0.37305 0.10547-0.37305 0.24726-1.0972 0.21688-1.9229-0.0527-2.3457-0.0198-0.0273-0.0851-0.082-0.10742-0.10547-0.0576-0.0614-0.14576-0.15753-0.21289-0.21289-0.64135-0.50753-1.735-0.74609-3.1973-0.74609-1.6541 0-2.8778 0.27022-3.7305 0.79882-0.83555 0.52863-1.6089 1.4957-2.291 2.877-1e-5 -1e-5 -6.4473 0-6.4473 0 2e-5 -1e-5 0.58594-1.2793 0.58594-1.2793 0.76733-1.7734 1.6817-3.2437 2.8242-4.3691 1.1425-1.1255 2.6861-1.9975 4.4766-2.6113 1.3722-0.45297 2.8709-0.75249 4.4766-0.85156zm27.016 0c0.24046-0.0296 0.50362 0 0.74609 0 1.5517 0 3.0069 0.46553 4.3711 1.4375 2e-5 2e-5 0.79883 0.58594 0.79883 0.58594 1e-5 0-3.3047 5.4355-3.3047 5.4355 1e-5 -2e-5 -0.90625-0.63867-0.90625-0.63867-0.66503-0.42629-1.3449-0.63867-2.0781-0.63867-0.64801 2e-5 -1.287 0.22941-1.918 0.63867-0.64796 0.4263-1.1186 0.99045-1.5449 1.7578-0.69916 1.313-1.2415 2.7852-1.5996 4.3711-2e-5 1e-5 -2.9297 13.107-2.9297 13.107 2e-5 -2e-5 -6.1816 0-6.1816 0 0-2e-5 5.7012-25.578 5.7012-25.578-1e-5 1e-5 5.7559 0 5.7559 0 0 1e-5 -0.14469 0.77652-0.21289 1.0664 0.27282-0.20461 0.54303-0.4852 0.79882-0.63867 0.81263-0.4929 1.6451-0.80071 2.5039-0.90625zm18.279 0c0.37185-0.0282 0.73867 0 1.1191 0 3.4787 0 6.1268 1.2187 7.832 3.623 1.0914 1.5517 1.6523 3.4709 1.6523 5.7559-2e-5 1.2618-0.20921 2.618-0.5332 4.1016l-0.42578 1.8652c-1e-5 -2e-5 -15.651 0-17.373 0-0.0341 0.35808-0.10547 0.74242-0.10547 1.0664 0 1.3301 0.28884 2.3772 0.85157 3.1445 0.0877 0.11936 0.22359 0.26673 0.32031 0.37305 0.056 0.0597 0.15385 0.15748 0.21289 0.21289 0.76235 0.69302 1.8009 1.0664 3.0918 1.0664 1.2619-2e-5 2.37-0.34864 3.4102-1.0137 0.98905-0.63093 1.9189-1.6388 2.7715-3.0371-2e-5 -3e-5 6.6602 0 6.6602 0 0-3e-5 -0.63867 1.2793-0.63867 1.2793-1.2619 2.5578-3.04 4.5534-5.2227 5.9688-2.2168 1.4153-4.8106 2.1836-7.7266 2.1836-3.7685-1e-5 -6.5204-1.2187-8.2598-3.623-1.7223-2.3532-2.1303-5.6067-1.2266-9.6992 0.92081-4.1607 2.7056-7.4856 5.3828-9.8047 2.4148-2.0806 5.1792-3.2338 8.207-3.4629zm-93.309 0.47852c2e-5 1e-5 6.3418 0 6.3418 0 2e-5 1e-5 0.78178 15.179 0.79883 15.4 0.25578-0.54356 0.4551-0.99958 0.48047-1.0645 1e-5 1e-5 6.9805-14.336 6.9805-14.336 2e-5 1e-5 5.8086 0 5.8086 0-1e-5 1e-5 0.5332 14.997 0.5332 15.082 0.17055-0.30691 7.9395-15.082 7.9395-15.082-2e-5 1e-5 6.2871-1e-5 6.2871 0-1e-5 1e-5 -13.854 25.578-13.854 25.578 2e-5 -2e-5 -5.7031 0-5.7031 0 0-2e-5 -0.55182-13.87-0.58593-14.654-2.3532 4.8258-7.1406 14.654-7.1406 14.654 0-2e-5 -5.8613 0-5.8613 0 0-2e-5 -2.0254-25.578-2.0254-25.578zm-148.89 4.8496c-1.4689 0.062-2.8038 0.59246-4.0508 1.5996-0.98902 0.78441-1.655 1.8605-2.1836 3.0371 0 2e-5 10.498 0 10.498 0 0.0171-0.18756 0.0527-0.4154 0.0527-0.58593-2e-5 -0.97195-0.17354-1.7267-0.48047-2.2383-0.75028-1.2278-1.8616-1.8125-3.5156-1.8125-0.0991 0-0.22239-4e-3 -0.32032 0zm27.764 0c-1.4689 0.062-2.8038 0.59246-4.0508 1.5996-0.98904 0.78441-1.6399 1.8605-2.1856 3.0371 0 2e-5 10.498 0 10.498 0 0.017-0.18756 0.0547-0.4154 0.0547-0.58593-1e-5 -0.97195-0.15647-1.7267-0.48047-2.2383-0.14894-0.24939-0.35075-0.49801-0.5332-0.69336-0.71199-0.73571-1.6921-1.1191-2.9844-1.1191-0.0991 0-0.22042-4e-3 -0.31836 0zm214.75 0c-1.5106 0.0465-2.9205 0.55891-4.209 1.5996-0.97198 0.78441-1.6399 1.8605-2.1855 3.0371 2e-5 2e-5 10.445 0 10.445 0 0.017-0.18756 0.0527-0.4154 0.0527-0.58593-1e-5 -0.97195-0.15451-1.7267-0.47851-2.2383-0.73324-1.2107-1.8635-1.7954-3.5176-1.8125-0.049 5.3e-4 -0.0587-1e-3 -0.10742 0zm-139.62 0.10743c-1.4096 0.16739-2.7204 0.8101-3.9434 1.918-1.4665 1.3301-2.5287 3.4192-3.1426 6.1816-0.25578 1.1596-0.37304 2.1504-0.37304 3.0371 2e-5 1.2107 0.23098 2.1608 0.6914 2.877 0.12257 0.18384 0.28659 0.37842 0.42774 0.5332 0.75804 0.80488 1.8152 1.2266 3.1426 1.2266 1.7223-2e-5 3.24-0.64257 4.6894-1.9726 1.4665-1.3471 2.5136-3.4564 3.1445-6.2871 0.5798-2.592 0.49819-4.5281-0.32031-5.7559-0.7844-1.1937-1.9298-1.7578-3.5156-1.7578-0.26911 0-0.53975-0.031-0.80078 0zm96.293 9.3242c-1.4494 0.39218-3.0741 0.72378-5.2226 1.0137-1.6029 0.23874-2.7451 0.4903-3.4102 0.74609-0.57976 0.23872-1.0472 0.56835-1.4394 1.0117-0.37516 0.42627-0.62674 0.87319-0.7461 1.3848-0.0341 0.20464-0.0527 0.4154-0.0527 0.58593 0 0.0138-3.1e-4 0.041 0 0.0547 2e-3 0.0406-4e-3 0.12101 0 0.16016 0.0107 0.0774 0.0316 0.19357 0.0527 0.26562 8e-3 0.0237 0.0439 0.0842 0.0527 0.10742 0.0187 0.0458 0.0315 0.11445 0.0547 0.15821 0.0243 0.0433 0.0768 0.11878 0.10547 0.16015 0.0446 0.0614 0.10579 0.15534 0.16016 0.21289 0.42631 0.47746 1.2781 0.69336 2.5059 0.69336 1.3472 1e-5 2.6423-0.25473 3.8359-0.85156 1.1766-0.57977 2.1251-1.4451 2.8242-2.4512 0.51159-0.7162 0.92121-1.8196 1.2793-3.252z" fill="#bd0000"/>
<path d="m661.85 357.65 4.6041-19.474c1.9269-8.6796 6.7356-14.631 11.05-14.631 3.1035 0 3.9561 2.268 3.8026 5.235-0.0853 1.5347-0.4263 3.257-0.7844 4.9622l-5.6954 23.907h12.278l4.6041-19.559c2.1145-8.9524 6.6504-14.546 10.879-14.546 2.9159 0 4.1266 2.0804 3.9902 5.0475-0.0853 1.7223-0.44336 3.6151-0.88671 5.3373l-5.5249 23.72h12.363l5.9512-25.254c0.46041-2.2679 0.98903-5.7978 1.0743-7.6053 0.37515-7.503-3.2911-11.476-9.9073-11.476-5.6613 0-11.169 2.5578-15.347 7.9463-0.15347-3.8879-2.933-7.9463-9.8221-7.9463-5.5761 0-10.896 2.5237-15.159 8.2362h-0.17052l1.1425-6.531h-10.948c-0.71619 3.6492-1.5858 8.0657-2.9159 13.215l-6.855 29.415h12.278zm-42.886 0c14.835 0 26.277-11.237 27.079-26.533 0.49452-10.129-5.8148-17.803-17.461-17.803-15.381 0-26.414 12.448-27.181 27.488-0.52862 10.948 6.531 16.848 17.564 16.848zm1.9951-10.231c-4.3313 0-6.7186-2.7625-6.4628-6.8891 0.34105-6.872 4.587-16.984 11.902-16.984 5.0475 0 6.5992 3.8709 6.3946 7.6735-0.37515 7.503-4.9452 16.2-11.834 16.2zm-31.001-52.862-4.7917 19.371c-1.7393-0.71619-4.0073-0.61388-5.7807-0.61388-16.336 0-27.897 13.983-28.665 29.125-0.51157 10.675 5.1839 15.211 12.516 15.211 5.1327 0 10.538-2.2679 14.631-8.1339h0.17052l-0.97197 8.1339h11.561c0.52862-5.1157 1.637-11.203 2.8818-16.762l11.067-46.331h-12.619zm-9.9585 41.642c-1.9951 8.4068-6.7015 11.22-10.419 11.22-3.7003 0-5.7636-2.5749-5.5079-7.1619 0.42631-8.492 6.2582-16.711 13.846-16.711 2.1315 0 3.9561 0.324 4.9622 0.80146l-2.8818 11.851zm-40.584 9.9414c-3.5298 1.7223-7.5541 1.2789-12.226 1.2789-3.7174 0-6.5651-0.64798-8.1339-1.9098-0.81851-1.3812-1.1766-3.5298-1.1084-4.911 17.291 0.46041 28.17-3.5298 28.733-14.443 0.40925-8.2362-5.6102-12.84-14.358-12.84-15.637 0-25.868 13.778-26.533 27.045-0.56272 11.578 5.4397 17.291 17.803 17.291 4.7746 0 11.084-0.54567 16.251-2.0974l-0.42631-9.4128zm-4.6552-19.985c-0.20463 4.0584-5.218 4.2972-15.108 4.2119 1.0913-3.5639 4.6894-6.8209 10.606-6.8209 2.9159 0 4.6041 1.1084 4.5018 2.609zm-40.55 19.985c-3.5298 1.7223-7.5541 1.2789-12.243 1.2789-3.7003 0-6.5651-0.64798-8.1339-1.9098-0.81851-1.3812-1.1596-3.5298-1.0913-4.911 17.274 0.46041 28.17-3.5298 28.716-14.443 0.40925-8.2362-5.6102-12.84-14.358-12.84-15.62 0-25.851 13.778-26.516 27.045-0.57978 11.578 5.4396 17.291 17.803 17.291 4.7576 0 11.084-0.54567 16.234-2.0974 0 0-0.40926-9.4128-0.40926-9.4128zm-4.6723-19.985c-0.20463 4.0584-5.218 4.2972-15.091 4.2119 1.0743-3.5639 4.6894-6.8209 10.606-6.8209 2.9159 0 4.587 1.1084 4.4847 2.609zm-51.907 31.495 3.8197-16.029c2.0122-8.6796 6.2582-16.37 14.29-16.37 0.7162 0 1.4153 0.3581 1.944 0.44336l3.1035-12.295c-0.71619 0-1.5006-0.0853-2.3873-0.0853-5.9171 0-10.879 4.1607-14.187 10.129h-0.34104c0.49451-2.9159 0.92082-5.6784 1.2448-8.4238h-10.965c-0.61388 3.5469-1.6029 10.487-3.0864 16.745l-6.2411 25.885h12.806zm-57.057 0h12.721l5.7295-23.873h20.65l2.6602-10.231h-20.753l3.4445-15.347h22.083l2.6601-11.937h-34.872l-14.324 61.388zm-54.738 1e-5 4.5018-19.201c2.3362-9.7709 7.3666-13.198 11.51-13.198 3.274 0 4.229 1.3983 4.0755 3.4275-0.0853 1.637-0.34104 3.3593-0.68209 4.894l-5.7295 24.078h12.721l6.0365-25.254c0.46041-2.1827 0.97198-5.4397 1.0743-7.4177 0.37515-7.6906-3.4616-10.487-10.521-10.487-5.6613 0-11.169 2.626-15.518 8.3215h-0.17052l1.1596-7.7929h-11.22c-0.73325 3.6492-1.6711 8.0657-3.0012 13.215l-6.9573 29.415h12.721zm-24.385-1e-5 10.317-42.631h-12.636l-10.385 42.631h12.704zm5.9171-47.746c4.3313 0 8.1851-3.581 8.4238-9.7198 0.20463-4.1607-2.4896-5.6272-6.4628-5.6272-4.1437 0-7.9293 2.6942-8.151 6.7186-0.20463 4.0584 2.4896 8.6284 6.19 8.6284zm-73.955 45.734c2.4555 1.9098 7.6053 1.9269 12.977 2.0122 11.476 0.0853 20.139-4.9281 20.65-14.136 0.28989-6.1388-4.4677-9.7709-9.1229-12.209-3.3593-1.62-5.0475-3.1717-4.9622-4.9792 0.11937-2.4385 2.4044-2.7795 5.7636-2.7795 3.7856 0 6.8209 0.46041 8.5602 0.80146l3.4446-9.2423c-1.961-1.1766-5.883-1.7905-10.913-1.7905-11.135 0-19.286 5.883-19.746 14.818-0.27284 5.5249 3.7003 9.2423 8.509 11.766 3.8879 1.9951 5.218 3.5298 5.1157 5.6954-0.11937 2.1827-2.0633 1.8246-5.5931 1.8246-4.1437 0-8.7307-0.54567-11.152-0.92082 0 0-3.5298 9.14-3.5298 9.14zm-8.3385 2.0122c0.10231-5.4056 1.3983-13.898 2.7454-19.474l5.4738-23.157c-3.4786-1.1766-8.9013-1.7052-14.119-1.7052-21.179 0-31.683 15.688-32.416 30.387-0.46041 9.2252 4.5359 13.949 12.312 13.949 5.0304 0 10.709-2.4385 15.125-9.7709h0.18758c-0.34105 3.5298-0.7503 6.9573-0.97198 9.7709h11.664zm-8.7478-24.351c-2.4896 10.845-7.5712 14.119-11.357 14.119-3.5298 0-5.0645-2.5067-4.8599-6.1558 0.40925-8.2362 6.9232-17.717 15.142-17.717 1.3301 0 2.3703-0.23873 3.3422-0.47746l-2.2679 10.231zm-57.074 12.84c-3.5298 1.7223-7.5541 1.2789-12.226 1.2789-3.7174 0-6.5651-0.64798-8.1339-1.9098-0.81851-1.3812-1.1766-3.5298-1.1084-4.911 17.291 0.46041 28.17-3.5298 28.733-14.443 0.40925-8.2362-5.6102-12.84-14.358-12.84-15.637 0-25.868 13.778-26.533 27.045-0.56272 11.578 5.4397 17.291 17.803 17.291 4.7746 0 11.084-0.54567 16.251-2.0974l-0.42631-9.4128zm-4.6552-19.985c-0.20463 4.0584-5.218 4.2972-15.108 4.2119 1.0913-3.5639 4.6894-6.8209 10.606-6.8209 2.9159 0 4.6041 1.1084 4.5018 2.609zm-40.55 19.985c-3.5298 1.7223-7.5541 1.2789-12.243 1.2789-3.7003 0-6.5651-0.64798-8.1339-1.9098-0.81851-1.3812-1.1596-3.5298-1.0913-4.911 17.274 0.46041 28.17-3.5298 28.716-14.443 0.40925-8.2362-5.6102-12.84-14.358-12.84-15.62 0-25.851 13.778-26.516 27.045-0.57978 11.578 5.4226 17.291 17.803 17.291 4.7576 0 11.067-0.54567 16.234-2.0974 0 0-0.40926-9.4128-0.40926-9.4128zm-4.6723-19.985c-0.20463 4.0584-5.218 4.2972-15.091 4.2119 1.0743-3.5639 4.6894-6.8209 10.606-6.8209 2.9159 0 4.587 1.1084 4.4847 2.609zm-51.907 31.495 3.8197-16.029c2.0122-8.6796 6.2582-16.37 14.29-16.37 0.71619 0 1.4153 0.3581 1.944 0.44336l3.1035-12.295c-0.71619 0-1.5006-0.0853-2.3873-0.0853-5.9171 0-10.879 4.1607-14.187 10.129h-0.34104c0.49451-2.9159 0.92082-5.6784 1.2448-8.4238h-10.965c-0.63093 3.5469-1.6029 10.487-3.0865 16.745l-6.2411 25.885h12.806zm-57.057 0h12.721l5.7125-23.873h20.667l2.6601-10.231h-20.753l3.4445-15.347h22.083l2.6601-11.937h-34.872s-14.324 61.388-14.324 61.388z" fill="#bd0000" stroke-width="1.7052"/>
</svg>
